<?xml version="1.0" encoding="UTF-8"?>
<svg width="41px" height="34px" viewBox="0 0 41 34" version="1.1" xmlns="http://www.w3.org/2000/svg" xmlns:xlink="http://www.w3.org/1999/xlink">
    <!-- Generator: Sketch 52.5 (67469) - http://www.bohemiancoding.com/sketch -->
    <title>微信</title>
    <desc>Created with Sketch.</desc>
    <defs>
        <linearGradient x1="0%" y1="0%" x2="100%" y2="100%" id="linearGradient-1">
            <stop stop-color="#B5E355" offset="0%"></stop>
            <stop stop-color="#7EC22A" offset="100%"></stop>
        </linearGradient>
        <path d="M1382.69062,3272.46981 C1383.09312,3272.46981 1383.48906,3272.49988 1383.88719,3272.54285 C1382.81531,3267.64097 1377.48,3264 1371.38781,3264 C1364.57812,3264 1359,3268.55604 1359,3274.34507 C1359,3277.68531 1360.855,3280.42839 1363.95687,3282.55926 L1362.71875,3286.21741 L1367.05,3284.08654 C1368.59875,3284.38512 1369.84125,3284.69444 1371.38781,3284.69444 C1371.77719,3284.69444 1372.16219,3284.67725 1372.54281,3284.64933 C1372.30219,3283.83521 1372.16,3282.98458 1372.16,3282.09743 C1372.16219,3276.78312 1376.80844,3272.46981 1382.69062,3272.46981 Z M1376.03187,3269.17254 C1376.96813,3269.17254 1377.58281,3269.77614 1377.58281,3270.69122 C1377.58281,3271.60199 1376.96813,3272.21204 1376.03187,3272.21204 C1375.10656,3272.21204 1374.17469,3271.60199 1374.17469,3270.69122 C1374.17469,3269.77399 1375.10437,3269.17254 1376.03187,3269.17254 Z M1367.36281,3272.21204 C1366.43312,3272.21204 1365.49687,3271.60199 1365.49687,3270.69122 C1365.49687,3269.77614 1366.43312,3269.17254 1367.36281,3269.17254 C1368.2925,3269.17254 1368.90937,3269.77399 1368.90937,3270.69122 C1368.90937,3271.60199 1368.2925,3272.21204 1367.36281,3272.21204 Z M1394,3281.95136 C1394,3277.08815 1389.04312,3273.12497 1383.47594,3273.12497 C1377.58062,3273.12497 1372.94094,3277.0903 1372.94094,3281.95136 C1372.94094,3286.82746 1377.58281,3290.77775 1383.47594,3290.77775 C1384.70969,3290.77775 1385.95437,3290.47488 1387.1925,3290.16985 L1390.58969,3292 L1389.65781,3288.95834 C1392.145,3287.1239 1394,3284.69444 1394,3281.95136 Z M1380.05906,3280.42839 C1379.44437,3280.42839 1378.82094,3279.82693 1378.82094,3279.21258 C1378.82094,3278.60683 1379.44437,3277.99678 1380.05906,3277.99678 C1380.99969,3277.99678 1381.61,3278.60683 1381.61,3279.21258 C1381.61,3279.82693 1380.99969,3280.42839 1380.05906,3280.42839 Z M1386.87312,3280.42839 C1386.26281,3280.42839 1385.64156,3279.82693 1385.64156,3279.21258 C1385.64156,3278.60683 1386.26062,3277.99678 1386.87312,3277.99678 C1387.805,3277.99678 1388.42406,3278.60683 1388.42406,3279.21258 C1388.42406,3279.82693 1387.805,3280.42839 1386.87312,3280.42839 Z" id="path-2"></path>
        <filter x="-17.1%" y="-10.7%" width="134.3%" height="142.9%" filterUnits="objectBoundingBox" id="filter-3">
            <feOffset dx="0" dy="3" in="SourceAlpha" result="shadowOffsetOuter1"></feOffset>
            <feGaussianBlur stdDeviation="1.5" in="shadowOffsetOuter1" result="shadowBlurOuter1"></feGaussianBlur>
            <feColorMatrix values="0 0 0 0 0.49524611   0 0 0 0 0.761745323   0 0 0 0 0.166286143  0 0 0 0.330757473 0" type="matrix" in="shadowBlurOuter1"></feColorMatrix>
        </filter>
    </defs>
    <g id="Page-1" stroke="none" stroke-width="1" fill="none" fill-rule="evenodd">
        <g id="首页-标注1" transform="translate(-1356.000000, -3264.000000)" fill-rule="nonzero">
            <g id="微信">
                <use fill="black" fill-opacity="1" filter="url(#filter-3)" xlink:href="#path-2"></use>
                <use fill="url(#linearGradient-1)" xlink:href="#path-2"></use>
            </g>
        </g>
    </g>
</svg>